<?xml version="1.0" standalone="no"?>
<!DOCTYPE svg PUBLIC "-//W3C//DTD SVG 20010904//EN"
 "http://www.w3.org/TR/2001/REC-SVG-20010904/DTD/svg10.dtd">
<svg version="1.0" xmlns="http://www.w3.org/2000/svg"
 width="1024.000000pt" height="1024.000000pt" viewBox="0 0 1024.000000 1024.000000"
 preserveAspectRatio="xMidYMid meet">
<metadata>
Created by potrace 1.11, written by Peter Selinger 2001-2013
</metadata>
<g transform="translate(0.000000,1024.000000) scale(0.100000,-0.100000)"
fill="#000000" stroke="none">
<path d="M858 10225 c-375 -63 -675 -320 -804 -687 -57 -162 -54 114 -54
-4423 0 -3649 2 -4181 15 -4255 39 -224 138 -411 297 -566 141 -137 313 -231
501 -271 78 -17 297 -18 4307 -18 4010 0 4229 1 4307 18 194 42 379 144 519
289 118 121 182 226 240 393 57 164 54 -110 54 4415 0 3666 -2 4176 -15 4258
-36 224 -141 421 -311 583 -146 140 -330 230 -539 264 -78 13 -643 15 -4265
14 -3363 -1 -4190 -4 -4252 -14z m9293 -2397 c-5 -13 -41 -99 -81 -193 -299
-708 -511 -1288 -1106 -3026 l-119 -346 -210 -6 c-115 -4 -297 -13 -404 -22
-107 -8 -195 -14 -197 -12 -2 1 66 282 150 622 84 341 217 881 295 1200 183
745 402 1608 411 1618 4 5 68 17 141 27 182 26 516 74 734 105 99 14 216 32
260 39 44 8 92 14 107 15 25 1 27 -1 19 -21z m-7261 -52 c275 -49 486 -173
638 -375 73 -97 116 -186 144 -299 18 -71 22 -117 22 -252 0 -191 -16 -299
-70 -460 -139 -417 -438 -767 -812 -955 l-93 -46 63 -42 c90 -59 234 -207 301
-309 245 -370 257 -892 30 -1291 -280 -491 -844 -860 -1621 -1058 -343 -88
-644 -123 -977 -116 -198 5 -406 24 -422 40 -2 3 32 141 75 308 273 1045 407
1770 737 3983 58 384 106 700 107 702 7 6 389 78 607 114 314 52 497 71 756
79 241 7 380 1 515 -23z m4220 20 c98 -5 265 -37 354 -68 310 -106 544 -365
602 -667 17 -89 20 -313 4 -421 -35 -243 -148 -510 -312 -732 -139 -190 -382
-394 -572 -479 -42 -19 -76 -36 -76 -39 0 -3 19 -17 43 -32 60 -39 166 -133
226 -203 202 -231 291 -501 278 -839 -7 -197 -40 -332 -120 -495 -132 -272
-363 -520 -662 -713 -320 -207 -749 -373 -1209 -468 -365 -75 -827 -91 -1132
-39 l-60 10 69 262 c155 591 314 1325 422 1942 61 351 233 1457 340 2185 49
327 91 598 94 602 19 22 808 156 1046 179 122 12 496 27 550 22 17 -1 68 -4
115 -7z m-2210 -1154 c0 -5 -20 -98 -44 -208 -59 -262 -114 -558 -176 -944
-72 -453 -79 -492 -84 -498 -10 -9 -266 -21 -623 -28 -351 -7 -353 -7 -353 13
0 31 51 367 129 848 38 237 78 482 88 545 l18 115 140 7 c250 12 537 58 785
126 125 35 120 34 120 24z m-397 -2182 c2 -3 -31 -214 -73 -470 -43 -256 -95
-573 -116 -705 l-39 -240 -120 -7 c-325 -18 -632 -66 -850 -132 -27 -8 -50
-14 -52 -12 -2 1 15 99 37 217 48 255 137 785 184 1102 19 126 37 231 41 235
16 16 974 28 988 12z m3812 -685 c185 -31 303 -87 412 -197 132 -133 184 -253
184 -418 0 -114 -17 -187 -72 -298 -117 -238 -375 -393 -708 -423 -327 -29
-537 81 -662 346 -57 123 -72 201 -67 347 8 195 66 337 186 456 92 92 241 172
353 191 86 14 277 12 374 -4z"/>
<path d="M1980 6796 c0 -22 -67 -390 -106 -589 -25 -126 -44 -231 -41 -233 15
-16 401 98 532 156 131 59 261 153 292 214 38 74 32 171 -15 241 -57 84 -230
167 -404 194 -91 15 -258 25 -258 17z"/>
<path d="M1665 5088 c-3 -11 -149 -815 -185 -1027 -6 -34 -9 -65 -7 -67 8 -9
233 28 342 56 363 91 596 276 636 504 32 188 -37 328 -216 434 -86 50 -165 77
-287 97 -116 19 -277 20 -283 3z"/>
<path d="M6366 6783 c-3 -10 -21 -110 -40 -223 -20 -113 -53 -290 -74 -395
-22 -104 -36 -191 -32 -193 4 -1 54 8 112 22 353 83 634 222 709 350 27 46 30
58 26 116 -2 36 -11 79 -20 96 -60 116 -261 208 -508 234 -143 14 -167 13
-173 -7z"/>
<path d="M6050 5091 c0 -5 -43 -245 -95 -532 -52 -288 -96 -534 -98 -546 -5
-27 -11 -27 122 -7 328 48 557 141 708 290 97 94 138 171 152 280 18 144 -15
240 -113 331 -101 95 -225 151 -391 178 -99 16 -285 20 -285 6z"/>
</g>
</svg>
